<svg xmlns="http://www.w3.org/2000/svg" width="600" height="600" viewBox="0 0 600 600"><defs><linearGradient id="a" x1="507.577" x2="510.827" y1="334.509" y2="324.781" gradientTransform="matrix(-1 0 0 1 813.045 -210.526)" gradientUnits="userSpaceOnUse"><stop offset="0" stop-color="#f4fae0"/><stop offset="1" stop-color="#fff"/></linearGradient></defs><defs><linearGradient id="b" x1="583.037" x2="580.908" y1="346.622" y2="335.473" gradientTransform="matrix(-1 0 0 1 813.045 -210.526)" gradientUnits="userSpaceOnUse"><stop offset="0" stop-color="#f6fbe6"/><stop offset="1" stop-color="#fff"/></linearGradient></defs><path fill="#2b2f6f" d="M324.139 158.94c12.267-18.721 14.89-35.447 11.457-57.621-.185-1.196-1.07-2.873-2.056-3.624-3.923-2.382-19.93 1.766-23.845 2.897-17.137 4.949-31.331 15.006-39.867 30.837a201 201 0 0 0-3.19 6.22c-13.685-20.498-35.38-26.394-59.027-25.613-3.61.119-15.356-.742-14.851 4.996 2.163 24.574 10.395 42.795 29.254 58.578-9.781 5.103-18.88 10.29-27.79 16.84a168.1 168.1 0 0 0-67 111.036 172.09 172.09 0 0 0 30.964 128.342 175.22 175.22 0 0 0 113.822 69.105c47.27 7.005 94.109-3.488 132.679-32.152a171.86 171.86 0 0 0 68.036-114.045 172.66 172.66 0 0 0-32.517-128.545c-28.839-38.41-68.86-60.539-116.07-67.251"/><path fill="#678bbe" d="M334.915 181.839c-10.116-2.918-17.375-4.76-28.074-5.547-3.786.808-9.977 4.719-13.868 6.338-13.776 5.729-26.148 6.141-40.83 5.072-6.737-2.181-10.416-2.276-18.003-5.385-30.796 13.661-55.685 34.085-73.617 62.906-2.665 4.285-6.932 12.064-8.677 16.615a38 38 0 0 0-.602 1.65c-.111 6.316-.47 12.83-.581 19.188-2.502 142.453 152.599 229.003 271.57 150.524 1.998-1.318 4.442-2.804 6.678-3.717 13.725-14.637 25.929-44.115 30.389-63.534-.972-1.838-.45-8.616-.322-10.946 3.876-71.26-35.883-137.278-101.488-165.797-6.804-2.957-15.081-6.785-22.575-7.367"/><path fill="#4c60a7" d="M334.915 181.839c-10.116-2.918-17.375-4.76-28.074-5.547-3.786.808-9.977 4.719-13.868 6.338-13.776 5.729-26.148 6.141-40.83 5.072-5.136 2.703-18.791 9.695-6.926 15.207-.09 2.062-.406 6.216-1.306 8.047 15.445 11.069 44.615 15.936 63.298 14.68 11.899-.8 37.648-6.351 46.837-13.795-.28-.901.642-6.054.446-8.996 15.149-8.956-13.561-17.056-19.577-21.006"/><path fill="#2b2f6f" d="M334.915 181.839c-10.116-2.918-17.375-4.76-28.074-5.547-3.786.808-9.977 4.719-13.868 6.338-13.776 5.729-26.148 6.141-40.83 5.072-5.136 2.703-18.791 9.695-6.926 15.207 3.627-.966 9.74-3.81 13.179-5.387 22.756-10.429 45.268-15.022 69.393-5.968 4.98 1.869 10.216 3.525 14.859 6.46 3.746 1.559 4.637 2.074 8.14 4.407l3.703.424c15.15-8.956-13.56-17.056-19.577-21.006"/><path fill="#678bbe" d="M342.648 198.015c-2.712.244-10.14.95-8.507 5.67 2.197 6.344 18.963 9.72 16.647-1.264-3.503-2.333-4.394-2.848-8.14-4.406"/><path fill="#2b2f6f" d="M301.264 192.674c-7.78-.162-17.297 1.592-19.284 10.588a9.83 9.83 0 0 0 1.452 7.686c2.849 4.276 7.633 5.582 12.307 6.59 8.278-.025 20.606-1.463 21.68-12.045a9.37 9.37 0 0 0-2.303-7.214c-3.565-4.088-8.777-5.139-13.852-5.605"/><path fill="#4c60a7" d="M303.029 204.084c-2.388-.203-8.272-1.066-9.66.989l.728 1.068c2.684.019 8.142.477 10.09-1.08z"/><path fill="#2b2f6f" d="M243.91 210.956c-4.104-2.713-10.29-8.568-15.144-8.598-2.714-.017-5.055 4.54-3.973 7.04 4.275 7.985 15.503 12.538 23.206 16.534 29.411 13.48 65.562 14.204 95.868 3.21 9.87-3.578 25.153-10.387 31.32-19.192 2.751-3.928-2.805-10.217-7.652-7.101-4.58 2.945-8.77 6.218-13.49 8.992-9.189 7.444-34.938 12.995-46.837 13.795-18.683 1.256-47.853-3.611-63.298-14.68"/><path fill="#fff" d="M388.805 224.076c-34.144-1.722-11.06 55.566 21.29 64.306 33.489 4.753 17.366-56.762-21.29-64.306"/><path fill="#2b2f6f" d="M374.078 302.167c-11.435-2.187-22.473 5.329-24.627 16.77-2.156 11.44 5.392 22.457 16.84 24.578 11.401 2.113 22.362-5.397 24.507-16.792s-5.333-22.377-16.72-24.556"/><path fill="#fff" d="M379.886 308.749a7.53 7.53 0 1 0-3.823 14.567 7.53 7.53 0 0 0 3.822-14.567"/><path fill="#2b2f6f" d="M229.45 302.126c-11.416-.421-21.057 8.4-21.648 19.81s8.087 21.18 19.486 21.942a20.904 20.904 0 1 0 2.163-41.752"/><path fill="#fff" d="M237.799 308.796a7.455 7.455 0 1 0-2.906 14.624 7.455 7.455 0 0 0 2.906-14.624"/><path fill="#4c60a7" d="M215.892 346.53c-8.686-.473-28.52 1.855-23.388 17.034 1.32 3.908 9.019 6.817 13.115 7.808 25.139 2.947 34.643-18.444 10.273-24.842M390.26 346.638c-21.375-2.332-31.915 21.55-4.832 25.259 25.617.425 30.089-21.963 4.832-25.26"/><path fill="#2b2f6f" d="M317.017 330.426c-7.104.476-5.52 5.7-9.074 10.159-4.628 5.536-13.75 4.875-17.717-1.235-1.993-2.548-4.28-9.744-8.584-8.24-6.34 2.217-4.244 8.263-2.192 12.758 5.596 8.857 13.928 12.393 24.179 10.706 8.976-1.477 19.132-10.033 17.588-19.907-.344-2.2-2.478-3.301-4.2-4.241"/><path fill="#fff" d="M432.29 300.943c-6.045-.284-11.205 4.32-11.609 10.359s4.098 11.289 10.126 11.813a11.113 11.113 0 1 0 1.483-22.172"/><path fill="#4c60a7" d="M151.244 263.489c-2.955 4.52-6.193 13.878-7.736 19.08a162.8 162.8 0 0 0-3.822 80.658 162 162 0 0 0 70.117 102.31 165.41 165.41 0 0 0 122.203 23.515c31.547-6.577 59.693-20.466 82.665-43.271 3.476-3.452 12.483-12.255 14.24-16.298-2.236.913-4.68 2.399-6.678 3.717-118.971 78.479-274.072-8.071-271.57-150.524.112-6.358.47-12.872.58-19.187"/><path fill="#6f953e" d="M324.139 158.94c12.267-18.721 14.89-35.447 11.457-57.621-.185-1.196-1.07-2.873-2.056-3.624-3.923-2.382-19.93 1.766-23.845 2.897-17.137 4.949-31.331 15.006-39.867 30.837a201 201 0 0 0-3.19 6.22c-13.685-20.498-35.38-26.394-59.027-25.613-3.61.119-15.356-.742-14.851 4.996 2.163 24.574 10.395 42.795 29.254 58.578 2.463.824 9.03 5.157 12.126 6.707 7.587 3.109 11.266 3.204 18.004 5.385 14.682 1.069 27.054.657 40.83-5.072 3.89-1.62 10.082-5.53 13.868-6.338l-.447-.49c1.543-1.345 7.859-6.75 9.536-7.066 1.99-2.734 5.909-7.075 8.208-9.796"/><path fill="#b0d161" d="M326.563 111.409c-.147-2.217.23-2.045-.914-3.405-6.825-1.656-22.07 5.042-28.084 8.655-7.217 4.335-15.512 12.01-19.227 19.68-5.784 6.955-5.805 20.39-5.088 28.79 6.825-12.621 15.698-28.629 27.369-37.398 3.94-2.96 9.48 3.002 6.766 6.896-3.41 4.892-8.13 8.94-11.756 13.75-6.608 8.764-11.224 18.466-15.994 28.28 32.909-11.144 48.476-29.947 46.928-65.248"/><path fill="url(#a)" d="M326.563 111.409c-.147-2.217.23-2.045-.914-3.405-6.825-1.656-22.07 5.042-28.084 8.655-7.217 4.335-15.512 12.01-19.227 19.68l.557.296c3.083-3.624 7.95-8.799 11.584-11.434 11.674-8.465 22.322-11.476 36.084-13.792" style="fill:url(#a)"/><path fill="#b0d161" d="M258.74 143.818a40.6 40.6 0 0 0-9.884-10.775c-11.746-9.031-30.506-12.814-44.847-10.918-.63 1.4-.086 2.46.228 4.315 3.825 17.442 10.929 32.332 26.364 42.415 10.804 7.058 20.32 8.567 32.81 9.72-6.317-8.663-12.726-17.272-20.813-24.4-4.244-3.74-9.16-6.931-13.395-10.692-4.526-4.02.088-9.86 3.894-8.453 10.164 3.759 23.02 17.144 29.485 25.274-.042-5.642.315-11.936-3.842-16.486"/><path fill="url(#b)" d="M258.74 143.818a40.6 40.6 0 0 0-9.884-10.775c-11.746-9.031-30.506-12.814-44.847-10.918-.63 1.4-.086 2.46.228 4.315 15.677-1.406 35.314 1.232 47.56 11.769 2.029 1.745 4.652 4.502 6.532 5.909z" style="fill:url(#b)"/><path fill="#fff" d="M315.93 168.736c-1.677.317-7.993 5.721-9.536 7.066l.447.49c10.7.787 17.958 2.629 28.073 5.547 7.494.582 15.771 4.41 22.575 7.367 65.605 28.519 105.364 94.538 101.488 165.797-.127 2.33-.65 9.108.322 10.946a189 189 0 0 0 2.577-14.7 160.33 160.33 0 0 0-31.772-119.87 162.88 162.88 0 0 0-89.293-58.44c-8.446-2.112-16.28-3.071-24.88-4.203"/><path fill="#2b2f6f" d="M528.344 241.103c-9.222-.26-22.883-.947-31.67 1.096-4.427 1.029 5.641 15.3 6.946 17.255 18.273 27.367 34.933 56.44 53.392 83.62-20.585 31.466-40.06 64.09-60.519 95.67-1.19 1.837-1.145 2.179-.974 4.239 1.282 1.947.467 1.244 2.465 2.274 9.205.196 21.236.289 30.322-.12 2.545-2.86 6.808-10.191 9.03-13.736l16.152-25.742 24.33-38.407c4.41-6.928 11.488-17.481 14.987-24.495-3.399-6.303-9.618-15.4-13.573-21.565l-24.572-38.527a2428 2428 0 0 1-16.269-26.025c-2.584-4.17-7.078-11.946-10.048-15.537M102.305 241.483c-10.036-.217-21.359-.166-31.384.022-2.273 2.707-7.349 11.256-9.576 14.802l-19.04 30.283-22.436 35.445c-3.404 5.36-10.11 15.324-12.675 20.71 2.17 4.487 5.998 10.322 8.71 14.687l17.27 27.42c11.522 18.406 25.592 42.573 37.811 59.967 1.988.283 7.573.528 9.566.319 5.04-.53 21.404 1.829 23.577-2.81-1.674-6.66-17.35-29.206-21.676-36.338-12.528-20.657-27.596-42.264-39.6-63.234 3.29-6.305 12.757-20.057 17.118-26.848a2779 2779 0 0 0 32.328-51.032c3.043-4.851 10.204-14.695 11.8-19.674-.093-1.876-.62-2.247-1.793-3.72"/></svg>